<?xml version="1.0" encoding="UTF-8" standalone="no"?>
<svg
   viewBox="0 0 297.38389 297.38388"
   version="1.1"
   id="svg4"
   sodipodi:docname="nyulogo.svg"
   width="297.38388"
   height="297.38388"
   inkscape:version="1.3.2 (091e20e, 2023-11-25)"
   inkscape:export-filename="C:\Users\suitedoalex\svg-nyu-logo-0.png"
   inkscape:export-xdpi="561.73712"
   inkscape:export-ydpi="561.73712"
   xmlns:inkscape="http://www.inkscape.org/namespaces/inkscape"
   xmlns:sodipodi="http://sodipodi.sourceforge.net/DTD/sodipodi-0.dtd"
   xmlns="http://www.w3.org/2000/svg"
   xmlns:svg="http://www.w3.org/2000/svg"
   xmlns:rdf="http://www.w3.org/1999/02/22-rdf-syntax-ns#"
   xmlns:cc="http://creativecommons.org/ns#"
   xmlns:dc="http://purl.org/dc/elements/1.1/">
  <metadata
     id="metadata10">
    <rdf:RDF>
      <cc:Work
         rdf:about="">
        <dc:format>image/svg+xml</dc:format>
        <dc:type
           rdf:resource="http://purl.org/dc/dcmitype/StillImage" />
      </cc:Work>
    </rdf:RDF>
  </metadata>
  <defs
     id="defs8" />
  <sodipodi:namedview
     pagecolor="#ffffff"
     bordercolor="#666666"
     borderopacity="1"
     objecttolerance="10"
     gridtolerance="10"
     guidetolerance="10"
     inkscape:pageopacity="0"
     inkscape:pageshadow="2"
     inkscape:window-width="1640"
     inkscape:window-height="1040"
     id="namedview6"
     showgrid="false"
     inkscape:zoom="1.2494019"
     inkscape:cx="85.640975"
     inkscape:cy="83.640018"
     inkscape:window-x="71"
     inkscape:window-y="44"
     inkscape:window-maximized="1"
     inkscape:current-layer="svg4"
     inkscape:showpageshadow="2"
     inkscape:pagecheckerboard="0"
     inkscape:deskcolor="#d1d1d1" />
  <path
     inkscape:connector-curvature="0"
     class="st0"
     d="m 131.84023,154.63966 c -30.72972,-17.8431 -27.75588,-44.6076 -14.86926,-63.44193 v -1.98257 c -0.99127,-4.95644 -5.94764,-15.86049 -7.93018,-18.83433 -0.99126,-0.99126 -0.99126,-0.99126 -0.99126,0 0,4.95644 -5.94775,17.84306 -14.86926,32.71225 -9.91282,16.8518 -9.91282,51.54658 38.65996,51.54658 0,0.99127 0,0 0,0 m 7.93017,-0.9913 c -17.84299,-38.65993 17.84306,-64.4332 23.7907,-69.38964 0.99134,-0.99127 0.99134,-0.99127 0.99134,-1.98254 0,-11.89535 -6.93898,-31.72094 -8.92151,-34.69478 h -0.99127 c -2.97391,11.89535 -19.82563,29.73841 -22.79943,33.70352 -28.74715,32.71225 -21.80817,53.52911 7.93017,72.36344 0,0.9913 0,0 0,0 m 5.94771,-1.98261 c 8.92155,-41.63369 42.62503,-42.62496 45.59887,-50.55524 4.95637,-11.89535 -3.96511,-33.70348 -5.94771,-36.67732 H 184.378 c -4.95637,9.91282 -11.89535,19.82553 -17.84299,23.7907 -6.93901,6.93891 -36.67743,28.74708 -20.8169,63.44186 -0.99127,0.99127 0,0.99127 0,0 m 5.94764,3.96518 c 54.52038,1.98253 58.48556,-47.5814 58.48556,-66.41577 0,-0.99127 -0.99134,-0.99127 -0.99134,0 -1.98257,3.96511 -8.92148,17.84299 -28.74707,25.77327 -16.8518,7.93025 -27.75588,24.78197 -28.74715,40.6425 -0.99126,0 0,0 0,0 m 11.89535,5.94764 h -42.62495 v 12.88662 h 42.62495 z m -24.78197,101.11051 c 0,1.98254 4.95645,2.97384 5.94771,0 l 9.91282,-82.27618 h -24.78208 z m 158.60474,34.69479 H 0 V 0 h 297.38387 z"
     id="path2-2"
     style="fill:#572b88;fill-opacity:1;stroke-width:9.9128"
     sodipodi:nodetypes="ccccscccccscccccccccccccsccccccccccccccccccc"
     inkscape:export-filename="C:\Users\suitedoalex\svg-nyu-logo-5.png"
     inkscape:export-xdpi="225.97058"
     inkscape:export-ydpi="225.97058" />
</svg>
